<svg xmlns="http://www.w3.org/2000/svg" viewBox="0 0 1200 800" role="img" aria-labelledby="title desc">
  <title id="title">Prepared sardines on a plate</title>
  <desc id="desc">Illustrated sardines on a plate on a light blue background.</desc>
  <defs>
    <linearGradient id="bg" x1="0" y1="0" x2="1" y2="1"><stop offset="0%" stop-color="#e3f2fd"/><stop offset="100%" stop-color="#bbdefb"/></linearGradient>
    <linearGradient id="fish" x1="0" y1="0" x2="1" y2="1"><stop offset="0%" stop-color="#90a4ae"/><stop offset="100%" stop-color="#546e7a"/></linearGradient>
  </defs>
  <rect width="1200" height="800" fill="url(#bg)"/>
  <ellipse cx="600" cy="660" rx="220" ry="30" fill="#90caf9" opacity=".25"/>
  <ellipse cx="600" cy="460" rx="250" ry="180" fill="#fafafa" stroke="#e0e0e0" stroke-width="5"/>
  <path d="M380 420 C420 400, 520 390, 600 400 C640 404, 660 420, 640 430 C600 440, 420 440, 380 420Z" fill="url(#fish)"/>
  <circle cx="410" cy="415" r="5" fill="#263238"/>
  <path d="M380 460 C420 440, 520 430, 600 440 C640 444, 660 460, 640 470 C600 480, 420 480, 380 460Z" fill="url(#fish)"/>
  <circle cx="410" cy="455" r="5" fill="#263238"/>
  <path d="M380 500 C420 480, 520 470, 600 480 C640 484, 660 500, 640 510 C600 520, 420 520, 380 500Z" fill="url(#fish)"/>
  <circle cx="410" cy="495" r="5" fill="#263238"/>
  <circle cx="720" cy="480" r="30" fill="#fff176" opacity=".6"/>
  <path d="M710 480 L720 460 L730 480Z" fill="#f9a825" opacity=".5"/>
</svg>
