<svg xmlns="http://www.w3.org/2000/svg" viewBox="0 0 1200 800" role="img" aria-labelledby="title desc">
  <title id="title">Cooked quinoa in a bowl</title>
  <desc id="desc">Illustrated bowl of quinoa on a light background.</desc>
  <defs>
    <linearGradient id="bg" x1="0" y1="0" x2="1" y2="1"><stop offset="0%" stop-color="#fff8e1"/><stop offset="100%" stop-color="#fff9c4"/></linearGradient>
  </defs>
  <rect width="1200" height="800" fill="url(#bg)"/>
  <ellipse cx="600" cy="650" rx="220" ry="35" fill="#ffe082" opacity=".25"/>
  <path d="M380 480c0-45 35-80 76-80h288c41 0 76 35 76 80v55c0 85-70 155-155 155H535c-85 0-155-70-155-155z" fill="#fafafa" stroke="#bdbdbd" stroke-width="7"/>
  <g fill="#f5deb3"><circle cx="440" cy="472" r="5"/><circle cx="460" cy="464" r="4"/><circle cx="480" cy="470" r="5"/><circle cx="500" cy="462" r="4"/><circle cx="520" cy="468" r="5"/><circle cx="540" cy="460" r="4"/><circle cx="560" cy="466" r="5"/><circle cx="580" cy="458" r="4"/><circle cx="600" cy="464" r="5"/><circle cx="620" cy="456" r="4"/><circle cx="640" cy="462" r="5"/><circle cx="660" cy="468" r="4"/><circle cx="680" cy="460" r="5"/><circle cx="700" cy="466" r="4"/><circle cx="720" cy="472" r="5"/><circle cx="740" cy="478" r="4"/><circle cx="455" cy="492" r="4"/><circle cx="475" cy="488" r="5"/><circle cx="495" cy="484" r="4"/><circle cx="515" cy="490" r="5"/><circle cx="535" cy="482" r="4"/><circle cx="555" cy="488" r="5"/><circle cx="575" cy="480" r="4"/><circle cx="595" cy="486" r="5"/><circle cx="615" cy="478" r="4"/><circle cx="635" cy="484" r="5"/><circle cx="655" cy="490" r="4"/><circle cx="675" cy="482" r="5"/><circle cx="695" cy="488" r="4"/><circle cx="715" cy="494" r="5"/><circle cx="735" cy="498" r="4"/><circle cx="470" cy="512" r="5"/><circle cx="500" cy="508" r="4"/><circle cx="530" cy="504" r="5"/><circle cx="560" cy="510" r="4"/><circle cx="590" cy="502" r="5"/><circle cx="620" cy="508" r="4"/><circle cx="650" cy="504" r="5"/><circle cx="680" cy="510" r="4"/><circle cx="710" cy="516" r="5"/></g>
</svg>
